<?xml version="1.0" encoding="utf-8"?>
<!-- Generator: Adobe Illustrator 25.0.1, SVG Export Plug-In . SVG Version: 6.00 Build 0)  -->
<svg version="1.1" id="Слой_1" xmlns="http://www.w3.org/2000/svg" xmlns:xlink="http://www.w3.org/1999/xlink" x="0px" y="0px"
	 viewBox="0 0 700 700" style="enable-background:new 0 0 700 700;" xml:space="preserve">
<style type="text/css">
	.st0{opacity:0.15;}
	.st1{fill:#FFFFFF;}
	.st2{fill:none;stroke:#FFFFFF;stroke-miterlimit:10;}
	.st3{fill:none;stroke:#FFFFFF;stroke-miterlimit:10;stroke-dasharray:11.0844,11.0844;}
	.st4{opacity:0.15;fill:none;stroke:#FFFFFF;stroke-miterlimit:10;}
</style>
<g class="st0">
	<path class="st1" d="M150.5,184c5.24,0,9.5,4.26,9.5,9.5s-4.26,9.5-9.5,9.5s-9.5-4.26-9.5-9.5S145.26,184,150.5,184 M150.5,183
		c-5.8,0-10.5,4.7-10.5,10.5s4.7,10.5,10.5,10.5s10.5-4.7,10.5-10.5S156.3,183,150.5,183L150.5,183z"/>
</g>
<g class="st0">
	<path class="st1" d="M319.5,357c4.69,0,8.5,3.81,8.5,8.5s-3.81,8.5-8.5,8.5s-8.5-3.81-8.5-8.5S314.81,357,319.5,357 M319.5,356
		c-5.25,0-9.5,4.25-9.5,9.5s4.25,9.5,9.5,9.5s9.5-4.25,9.5-9.5S324.75,356,319.5,356L319.5,356z"/>
</g>
<g class="st0">
	<path class="st1" d="M506,142c4.41,0,8,3.59,8,8s-3.59,8-8,8s-8-3.59-8-8S501.59,142,506,142 M506,141c-4.97,0-9,4.03-9,9
		s4.03,9,9,9s9-4.03,9-9S510.97,141,506,141L506,141z"/>
</g>
<g class="st0">
	<path class="st1" d="M319.5,66c4.69,0,8.5,3.81,8.5,8.5s-3.81,8.5-8.5,8.5s-8.5-3.81-8.5-8.5S314.81,66,319.5,66 M319.5,65
		c-5.25,0-9.5,4.25-9.5,9.5s4.25,9.5,9.5,9.5s9.5-4.25,9.5-9.5S324.75,65,319.5,65L319.5,65z"/>
</g>
<g class="st0">
	<path class="st1" d="M488.5,519c4.14,0,7.5,3.36,7.5,7.5s-3.36,7.5-7.5,7.5s-7.5-3.36-7.5-7.5S484.36,519,488.5,519 M488.5,518
		c-4.69,0-8.5,3.81-8.5,8.5s3.81,8.5,8.5,8.5s8.5-3.81,8.5-8.5S493.19,518,488.5,518L488.5,518z"/>
</g>
<g class="st0">
	<path class="st1" d="M173.5,536c6.34,0,11.5,5.16,11.5,11.5s-5.16,11.5-11.5,11.5s-11.5-5.16-11.5-11.5S167.16,536,173.5,536
		 M173.5,535c-6.9,0-12.5,5.6-12.5,12.5s5.6,12.5,12.5,12.5s12.5-5.6,12.5-12.5S180.4,535,173.5,535L173.5,535z"/>
</g>
<g class="st0">
	<path class="st1" d="M42,394c3.31,0,6,2.69,6,6s-2.69,6-6,6s-6-2.69-6-6S38.69,394,42,394 M42,393c-3.87,0-7,3.13-7,7s3.13,7,7,7
		s7-3.13,7-7S45.87,393,42,393L42,393z"/>
</g>
<g class="st0">
	<path class="st1" d="M592.5,386c3.58,0,6.5,2.92,6.5,6.5s-2.92,6.5-6.5,6.5s-6.5-2.92-6.5-6.5S588.92,386,592.5,386 M592.5,385
		c-4.14,0-7.5,3.36-7.5,7.5s3.36,7.5,7.5,7.5s7.5-3.36,7.5-7.5S596.64,385,592.5,385L592.5,385z"/>
</g>
<g class="st0">
	<path class="st1" d="M633.5,205c2.48,0,4.5,2.02,4.5,4.5s-2.02,4.5-4.5,4.5s-4.5-2.02-4.5-4.5S631.02,205,633.5,205 M633.5,204
		c-3.04,0-5.5,2.46-5.5,5.5s2.46,5.5,5.5,5.5s5.5-2.46,5.5-5.5S636.54,204,633.5,204L633.5,204z"/>
</g>
<g class="st0">
	<path class="st1" d="M69,60c4.41,0,8,3.59,8,8s-3.59,8-8,8s-8-3.59-8-8S64.59,60,69,60 M69,59c-4.97,0-9,4.03-9,9
		c0,4.97,4.03,9,9,9s9-4.03,9-9C78,63.03,73.97,59,69,59L69,59z"/>
</g>
<g class="st0">
	<path class="st1" d="M327.5,623c3.58,0,6.5,2.92,6.5,6.5s-2.92,6.5-6.5,6.5s-6.5-2.92-6.5-6.5S323.92,623,327.5,623 M327.5,622
		c-4.14,0-7.5,3.36-7.5,7.5s3.36,7.5,7.5,7.5s7.5-3.36,7.5-7.5S331.64,622,327.5,622L327.5,622z"/>
</g>
<g class="st0">
	<path class="st1" d="M607,664c3.31,0,6,2.69,6,6s-2.69,6-6,6s-6-2.69-6-6S603.69,664,607,664 M607,663c-3.87,0-7,3.13-7,7
		s3.13,7,7,7s7-3.13,7-7S610.87,663,607,663L607,663z"/>
</g>
<g class="st0">
	<path class="st1" d="M474,351c3.86,0,7,3.14,7,7s-3.14,7-7,7s-7-3.14-7-7S470.14,351,474,351 M474,350c-4.42,0-8,3.58-8,8
		s3.58,8,8,8s8-3.58,8-8S478.42,350,474,350L474,350z"/>
</g>
<g class="st0">
	<g>
		<path class="st2" d="M86.72,316.94c1.66-1.66,3.47-2.28,5.35-2.42"/>
		<path class="st3" d="M103.1,315.25c1.62-0.24,3.18-0.9,4.62-2.34c6.26-6.26-2.23-14.74,4.03-21c6.26-6.26,14.74,2.23,21-4.03
			c6.26-6.26-2.23-14.75,4.03-21.01c3.03-3.03,6.57-2.61,10.14-2.07"/>
		<path class="st2" d="M152.43,265.27c1.89-0.14,3.7-0.76,5.35-2.42"/>
	</g>
</g>
<g class="st0">
	<path class="st2" d="M345.38,500.23c8.39-2.8,12.19,8.58,20.59,5.77c8.39-2.81,4.59-14.19,12.98-16.99
		c8.39-2.81,12.2,8.58,20.59,5.77c8.39-2.81,4.59-14.19,12.99-16.99c8.39-2.81,12.2,8.58,20.59,5.77"/>
</g>
<g class="st0">
	<path class="st2" d="M539.26,284.12c8.23,3.24,3.84,14.41,12.08,17.64c8.24,3.24,12.63-7.93,20.86-4.69
		c8.24,3.24,3.85,14.41,12.08,17.64c8.24,3.24,12.63-7.93,20.87-4.69c8.24,3.24,3.85,14.41,12.08,17.65"/>
</g>
<g class="st0">
	<path class="st2" d="M314.96,122.08c6.82,5.64-0.83,14.89,5.99,20.52c6.82,5.64,14.47-3.61,21.29,2.03
		c6.82,5.64-0.83,14.89,5.99,20.52c6.82,5.64,14.47-3.61,21.29,2.03c6.82,5.64-0.82,14.89,6,20.53"/>
</g>
<g class="st0">
	<path class="st2" d="M534.98,69.94c8.2-3.32,12.7,7.8,20.9,4.48c8.2-3.32,3.7-14.44,11.9-17.76c8.2-3.32,12.71,7.8,20.91,4.48
		c8.2-3.32,3.7-14.44,11.91-17.77c8.2-3.32,12.71,7.8,20.91,4.48"/>
</g>
<g class="st0">
	<path class="st2" d="M119.86,682.76c-6.18-6.33,2.41-14.71-3.77-21.04c-6.18-6.33-14.77,2.05-20.95-4.29
		c-6.18-6.33,2.41-14.71-3.77-21.05c-6.18-6.34-14.77,2.04-20.95-4.29c-6.18-6.34,2.41-14.72-3.77-21.05"/>
</g>
<g class="st0">
	<g>
		<path class="st2" d="M512,598.9c2.34,0,4.06,0.84,5.49,2.08"/>
		<path class="st3" d="M524.78,609.29c1.31,0.98,2.88,1.61,4.92,1.61c8.85,0,8.85-12,17.7-12c8.85,0,8.85,12,17.7,12
			c8.85,0,8.85-12,17.7-12c4.28,0,6.49,2.81,8.63,5.7"/>
		<path class="st2" d="M595.01,608.82c1.43,1.24,3.15,2.07,5.49,2.07"/>
	</g>
</g>
<polygon class="st4" points="259.28,243.41 246.63,239.31 233.98,235.2 243.86,226.3 253.74,217.39 256.51,230.4 "/>
<polygon class="st4" points="193.74,432.16 184.3,441.53 174.85,450.89 171.46,438.03 168.07,425.17 180.91,428.66 "/>
<polygon class="st4" points="594.74,525.9 585.9,523.15 577.06,520.4 583.86,514.11 590.67,507.83 592.71,516.86 "/>
<polygon class="st4" points="545.96,233.49 533.56,236.47 521.15,239.45 524.78,227.22 528.4,214.98 537.18,224.24 "/>
<polygon class="st4" points="394.96,425.49 382.56,428.47 370.15,431.45 373.78,419.22 377.4,406.98 386.18,416.24 "/>
<polygon class="st4" points="175.69,95.6 169.18,87.82 162.67,80.04 172.67,78.29 182.66,76.55 179.18,86.07 "/>
<rect x="259.5" y="530.5" class="st4" width="17" height="17"/>
<rect x="401.5" y="264.5" transform="matrix(0.9328 0.3604 -0.3604 0.9328 126.3783 -129.7171)" class="st4" width="19" height="19"/>
<rect x="414.5" y="59.5" transform="matrix(0.8397 0.543 -0.543 0.8397 106.1283 -219.5614)" class="st4" width="21" height="21"/>
<rect x="34.5" y="172.5" transform="matrix(0.9396 -0.3424 0.3424 0.9396 -60.4979 27.2718)" class="st4" width="25" height="25"/>
<rect x="207.5" y="339.5" transform="matrix(0.9692 0.2462 -0.2462 0.9692 91.5121 -41.8264)" class="st4" width="11" height="11"/>
<rect x="656.5" y="469.5" transform="matrix(0.9815 0.1912 -0.1912 0.9815 103.3574 -118.0795)" class="st4" width="14" height="14"/>
<rect x="526.5" y="450.5" transform="matrix(0.9509 -0.3094 0.3094 0.9509 -115.5148 187.7215)" class="st4" width="15" height="15"/>
<rect x="34.5" y="516.5" class="st4" width="14" height="14"/>
<rect x="405.5" y="633.5" transform="matrix(0.866 -0.5 0.5 0.866 -266.2666 294.2796)" class="st4" width="21" height="21"/>
<rect x="193.5" y="637.5" transform="matrix(0.9328 0.3604 -0.3604 0.9328 248.1181 -30.5601)" class="st4" width="25" height="25"/>
<rect x="298.5" y="301.5" transform="matrix(0.6719 -0.7406 0.7406 0.6719 -128.0483 326.9254)" class="st4" width="13" height="13"/>
</svg>
